<?xml version="1.0" encoding="utf-8"?>
<!-- Generator: Adobe Illustrator 25.0.0, SVG Export Plug-In . SVG Version: 6.00 Build 0)  -->
<svg version="1.1" id="Layer_1" xmlns="http://www.w3.org/2000/svg" xmlns:xlink="http://www.w3.org/1999/xlink" x="0px" y="0px"
	 viewBox="0 0 100 100" style="enable-background:new 0 0 100 100;" xml:space="preserve">
<style type="text/css">
	.st0{fill:#886227;}
	.st1{fill:url(#SVGID_1_);}
	.st2{fill:url(#SVGID_2_);}
	.st3{fill:#FCA311;}
</style>
<g>
	<polygon class="st0" points="50.38,43.48 42.47,50.19 16.18,27.89 16.18,14.48 	"/>
	<polygon class="st0" points="83.82,71.83 83.82,85.24 50.38,56.89 58.29,50.19 	"/>
	<linearGradient id="SVGID_1_" gradientUnits="userSpaceOnUse" x1="89.4084" y1="86.2674" x2="89.4084" y2="25.7945">
		<stop  offset="0" style="stop-color:#FCA311"/>
		<stop  offset="0.2657" style="stop-color:#F9A112"/>
		<stop  offset="0.4433" style="stop-color:#F09C13"/>
		<stop  offset="0.5952" style="stop-color:#E19416"/>
		<stop  offset="0.7325" style="stop-color:#CC881A"/>
		<stop  offset="0.8601" style="stop-color:#B0791F"/>
		<stop  offset="0.9789" style="stop-color:#8F6626"/>
		<stop  offset="1" style="stop-color:#886227"/>
	</linearGradient>
	<polygon class="st1" points="95,19.06 95,94.37 94.79,94.55 83.82,85.24 83.82,28.54 	"/>
	<linearGradient id="SVGID_2_" gradientUnits="userSpaceOnUse" x1="10.5916" y1="12.1156" x2="10.5916" y2="75.2282">
		<stop  offset="0" style="stop-color:#FCA311"/>
		<stop  offset="0.2414" style="stop-color:#F9A112"/>
		<stop  offset="0.4209" style="stop-color:#F09C13"/>
		<stop  offset="0.5804" style="stop-color:#DF9316"/>
		<stop  offset="0.7282" style="stop-color:#C9861B"/>
		<stop  offset="0.8666" style="stop-color:#AC7620"/>
		<stop  offset="0.9987" style="stop-color:#886227"/>
		<stop  offset="1" style="stop-color:#886227"/>
	</linearGradient>
	<polygon class="st2" points="16.18,14.48 16.18,72.48 5,81.96 5,5 	"/>
	<polygon class="st3" points="95,5.65 95,19.06 83.82,28.54 58.29,50.19 5.44,95 5,94.63 5,81.96 16.18,72.48 50.38,43.48 
		83.82,15.13 	"/>
</g>
</svg>
